<svg xmlns="http://www.w3.org/2000/svg" xmlns:xlink="http://www.w3.org/1999/xlink" width="489" zoomAndPan="magnify" viewBox="0 0 366.75 353.249998" height="471" preserveAspectRatio="xMidYMid meet" version="1.0"><defs><clipPath id="955063b51f"><path d="M 0.265625 0 L 366.238281 0 L 366.238281 352.5 L 0.265625 352.5 Z M 0.265625 0 " clip-rule="nonzero"/></clipPath><clipPath id="f28b3c37a5"><path d="M 2 2 L 364 2 L 364 351 L 2 351 Z M 2 2 " clip-rule="nonzero"/></clipPath><clipPath id="bb1e426a47"><path d="M 190.074219 4.035156 L 236.859375 31.691406 C 241.378906 34.363281 246.289062 36.324219 251.410156 37.503906 L 304.914062 49.839844 C 309.65625 50.933594 313.378906 54.597656 314.554688 59.316406 L 327.234375 110.347656 C 328.5 115.445312 330.585938 120.300781 333.40625 124.730469 L 361.976562 169.5625 C 364.574219 173.644531 364.574219 178.859375 361.976562 182.9375 L 333.40625 227.773438 C 330.585938 232.199219 328.5 237.058594 327.234375 242.152344 L 314.554688 293.183594 C 313.378906 297.90625 309.65625 301.566406 304.914062 302.660156 L 251.410156 314.996094 C 246.289062 316.175781 241.378906 318.136719 236.859375 320.8125 L 190.074219 348.46875 C 185.867188 350.957031 180.636719 350.957031 176.425781 348.46875 L 129.644531 320.8125 C 125.121094 318.136719 120.210938 316.175781 115.09375 314.996094 L 61.585938 302.660156 C 56.84375 301.566406 53.121094 297.90625 51.945312 293.183594 L 39.265625 242.152344 C 38 237.058594 35.914062 232.199219 33.09375 227.773438 L 4.523438 182.9375 C 1.925781 178.859375 1.925781 173.644531 4.523438 169.5625 L 33.09375 124.730469 C 35.914062 120.300781 38 115.445312 39.265625 110.347656 L 51.945312 59.316406 C 53.121094 54.597656 56.84375 50.933594 61.585938 49.839844 L 115.09375 37.503906 C 120.210938 36.324219 125.121094 34.363281 129.644531 31.691406 L 176.425781 4.035156 C 180.636719 1.546875 185.867188 1.546875 190.074219 4.035156 Z M 190.074219 4.035156 " clip-rule="nonzero"/></clipPath></defs><g clip-path="url(#955063b51f)"><path fill="#ffffff" d="M 0.265625 0 L 366.238281 0 L 366.238281 352.5 L 0.265625 352.5 Z M 0.265625 0 " fill-opacity="1" fill-rule="nonzero"/><path fill="#ffffff" d="M 0.265625 0 L 366.238281 0 L 366.238281 352.5 L 0.265625 352.5 Z M 0.265625 0 " fill-opacity="1" fill-rule="nonzero"/></g><g clip-path="url(#f28b3c37a5)"><g clip-path="url(#bb1e426a47)"><path fill="#51ade5" d="M 0.265625 0 L 366.535156 0 L 366.535156 352.5 L 0.265625 352.5 Z M 0.265625 0 " fill-opacity="1" fill-rule="nonzero"/></g></g></svg>